<svg xmlns="http://www.w3.org/2000/svg" id="_85" width="25" height="25" viewBox="0 0 25 25">
    <defs>
        <clipPath id="clip-path">
            <path id="_85_Background_Mask_" d="M0 0H24V24H0z" class="cls-1" transform="translate(23 1)"/>
        </clipPath>
        <style>
            .cls-1,.cls-4{fill:none}.cls-4{stroke:#fff;stroke-width:1.2px}
        </style>
    </defs>
    <path id="_85_Background_Mask_2" d="M0 0H24V24H0z" class="cls-1"/>
    <g id="_85-2" clip-path="url(#clip-path)" transform="translate(-22)">
        <path id="선_119" fill="none" stroke="#fff" stroke-linecap="square" d="M0 11L0 0" transform="translate(44.5 8.5)"/>
        <g id="그룹_3156">
            <g id="타원_106" class="cls-4" transform="translate(25 4)">
                <ellipse cx="10" cy="4" rx="10" ry="4"/>
                <ellipse cx="10" cy="4" class="cls-1" rx="9.4" ry="3.4"/>
            </g>
            <path id="선_118" fill="none" stroke="#fff" stroke-linecap="square" stroke-width="1.2px" d="M0 11L0 0" transform="translate(25.5 8.5)"/>
            <path id="패스_2165" d="M44.5 19.5s-2.73 3.619-9.5 3.594-9.6-3.594-9.6-3.594" class="cls-4" transform="translate(0 0.311)"/>
            <path id="패스_2166" d="M44.5 19.5s-2.73 3.619-9.5 3.594-9.6-3.594-9.6-3.594" class="cls-4" transform="translate(0 -3.594)"/>
            <path id="패스_2167" d="M44.5 19.5s-2.73 3.619-9.5 3.594-9.6-3.594-9.6-3.594" class="cls-4" transform="translate(0 -7.5)"/>
        </g>
    </g>
</svg>
