<svg xmlns="http://www.w3.org/2000/svg" width="14" height="14" viewBox="0 0 15.532 13.894">
    <path fill="#ea5450" d="M15.532 5.384a.641.641 0 0 1-.243.42L11.9 8.9l.8 4.377a1.1 1.1 0 0 1 .009.175c0 .228-.112.438-.383.438a.8.8 0 0 1-.373-.105l-4.187-2.062-4.191 2.066a.826.826 0 0 1-.373.105.392.392 0 0 1-.392-.438 1.115 1.115 0 0 1 .019-.175l.8-4.377L.233 5.8A.668.668 0 0 1 0 5.384c0-.263.289-.368.523-.4l4.686-.639 2.1-3.986A.572.572 0 0 1 7.766 0a.572.572 0 0 1 .457.359l2.1 3.983 4.686.639c.224.036.523.141.523.403z"/>
</svg>
