<svg xmlns="http://www.w3.org/2000/svg" id="_01_Icons_Filled_arrrow-left-fill_Copy" width="15" height="15" viewBox="0 0 15 15">
    <defs>
        <clipPath id="clip-path">
            <path id="_Icon_Сolor" fill="#18203a" d="M14.167 15a.828.828 0 0 1-.589-.245l-2.83-2.829a6.592 6.592 0 0 1-4.081 1.407 6.667 6.667 0 1 1 6.667-6.667 6.591 6.591 0 0 1-1.407 4.081l2.829 2.83A.834.834 0 0 1 14.167 15zm-7.5-13.334a5 5 0 1 0 5 5 5.006 5.006 0 0 0-5-5z"/>
        </clipPath>
        <style>
        </style>
    </defs>
    <g id="그룹_5">
        <path id="_Icon_Сolor-2" fill="#333" d="M14.167 15a.828.828 0 0 1-.589-.245l-2.83-2.829a6.592 6.592 0 0 1-4.081 1.407 6.667 6.667 0 1 1 6.667-6.667 6.591 6.591 0 0 1-1.407 4.081l2.829 2.83A.834.834 0 0 1 14.167 15zm-7.5-13.334a5 5 0 1 0 5 5 5.006 5.006 0 0 0-5-5z"/>
    </g>
</svg>
