<svg xmlns="http://www.w3.org/2000/svg" id="_4" width="24" height="24" viewBox="0 0 24 24">
    <defs>
        <clipPath id="clip-path">
            <path id="_4_Background_Mask_" d="M0 0H24V24H0z" class="cls-1"/>
        </clipPath>
        <style>
            .cls-1,.cls-3{fill:none}.cls-3{stroke:#fff;stroke-linecap:round;stroke-linejoin:round;stroke-miterlimit:10;stroke-width:1.3px;stroke-dasharray:0 0}
        </style>
    </defs>
    <path id="_4_Background_Mask_2" d="M0 0H24V24H0z" class="cls-1"/>
    <g id="_4-2" clip-path="url(#clip-path)">
        <g id="Group" transform="translate(2.605 2.601)">
            <path id="Vector" d="M15.315 3.209a3.136 3.136 0 0 1-2.53-.25 3.126 3.126 0 0 1-1.5-2.05.991.991 0 0 0-.79-.79 9.522 9.522 0 0 0-3.06.01.993.993 0 0 0-.78.79 3.148 3.148 0 0 1-1.49 2.07 3.1 3.1 0 0 1-2.53.27 1 1 0 0 0-1.07.28A9.511 9.511 0 0 0 .055 6.2a.973.973 0 0 0 .3 1.06 3.211 3.211 0 0 1 1.04 2.33 3.148 3.148 0 0 1-1.03 2.33.977.977 0 0 0-.29 1.06 9.777 9.777 0 0 0 .66 1.39 9.439 9.439 0 0 0 .88 1.26 1 1 0 0 0 1.07.28 3.114 3.114 0 0 1 4.03 2.3.981.981 0 0 0 .78.78 9.521 9.521 0 0 0 3.06-.01.993.993 0 0 0 .78-.79 3.148 3.148 0 0 1 1.49-2.07 3.1 3.1 0 0 1 2.53-.27.974.974 0 0 0 1.07-.29 9.8 9.8 0 0 0 1.52-2.66.973.973 0 0 0-.3-1.06 3.119 3.119 0 0 1-.02-4.65.977.977 0 0 0 .29-1.06 9.777 9.777 0 0 0-.66-1.39 8.445 8.445 0 0 0-.87-1.25 1 1 0 0 0-1.07-.281z" class="cls-3"/>
            <path id="Vector-2" d="M2.96 5.92a2.96 2.96 0 1 1 2.96-2.96 2.96 2.96 0 0 1-2.96 2.96z" class="cls-3" transform="translate(6.045 6.599)"/>
        </g>
    </g>
</svg>
